<svg width="33" height="32" viewBox="0 0 33 32" fill="none" xmlns="http://www.w3.org/2000/svg">
<g clip-path="url(#clip0_17504_40433)">
<path d="M16.5 32C25.3366 32 32.5 24.8366 32.5 16C32.5 7.16344 25.3366 0 16.5 0C7.66344 0 0.5 7.16344 0.5 16C0.5 24.8366 7.66344 32 16.5 32Z" fill="#F0F0F0"/>
<path d="M16.4995 22.9569C20.3414 22.9569 23.456 19.8424 23.456 16.0004C23.456 12.1585 20.3414 9.04395 16.4995 9.04395C12.6575 9.04395 9.54297 12.1585 9.54297 16.0004C9.54297 19.8424 12.6575 22.9569 16.4995 22.9569Z" fill="#D80027"/>
</g>
<rect x="1.3" y="0.8" width="30.4" height="30.4" rx="15.2" stroke="white" stroke-width="1.6"/>
<defs>
<clipPath id="clip0_17504_40433">
<rect x="0.5" width="32" height="32" rx="16" fill="white"/>
</clipPath>
</defs>
</svg>
