<svg width="33" height="32" viewBox="0 0 33 32" fill="none" xmlns="http://www.w3.org/2000/svg">
<g clip-path="url(#clip0_17504_40436)">
<path d="M0.5 16.0004C0.5 17.9576 0.852063 19.8323 1.49519 21.5656L16.5 22.9569L31.5048 21.5656C32.1479 19.8323 32.5 17.9576 32.5 16.0004C32.5 14.0433 32.1479 12.1686 31.5048 10.4353L16.5 9.04395L1.49519 10.4353C0.852063 12.1686 0.5 14.0433 0.5 16.0004H0.5Z" fill="#FFDA44"/>
<path d="M31.5057 10.4348C29.245 4.34206 23.3803 0 16.5009 0C9.62147 0 3.75678 4.34206 1.49609 10.4348H31.5057Z" fill="#D80027"/>
<path d="M1.49609 21.5654C3.75678 27.6582 9.62147 32.0002 16.5009 32.0002C23.3803 32.0002 29.245 27.6582 31.5057 21.5654H1.49609Z" fill="#D80027"/>
</g>
<rect x="1.3" y="0.8" width="30.4" height="30.4" rx="15.2" stroke="white" stroke-width="1.6"/>
<defs>
<clipPath id="clip0_17504_40436">
<rect x="0.5" width="32" height="32" rx="16" fill="white"/>
</clipPath>
</defs>
</svg>
