<svg width="609" height="97" viewBox="0 0 609 97" fill="none" xmlns="http://www.w3.org/2000/svg">
<path d="M16.9 55.4H17.9C20.4 55.4 23.3 55.4 25.8 55.4C27.4 55.4 28.7 55.1 29.9 54.1C32.8 51.9 32.8 47.8 29.9 45.9C28.9 45.3 28 44.6 27 44.6C23.5 44.3 20.3 44.6 16.9 44.3V55.4ZM16.9 74.7H17.9C20.8 74.7 23.3 74.7 26.1 74.7C26.7 74.7 27.4 74.7 28 74.7C31.8 74.1 34.3 70.6 33.1 66.8C32.5 64.3 30.2 63 28 62.4C26.4 62.1 24.5 62.1 22.9 62.1C21 62.1 19.1 62.1 16.9 62.1V74.7ZM4.2 37C7.7 37 11.5 37 15 37C19.8 37 24.5 37 29.3 37.3C33.1 37.3 36.3 38.6 38.5 41.7C41 45.2 41.7 49 40.4 53.1C39.8 55 38.5 56.3 36.9 57.2C36.3 57.5 35.9 57.8 35.3 58.2C36.6 58.8 37.8 59.5 38.8 60.4C41.3 62.6 42.6 65.8 42.6 69.3C42.6 73.1 41.3 76.3 38.2 78.8C36 80.7 33.4 81.7 30.6 82C29.6 82 28.7 82.3 27.7 82.3C20.1 82.3 12.5 82.3 4.9 82.3C4.6 82.3 4.3 82.3 3.9 82.3V75H7.4V44.6H3.9L4.2 37ZM580.7 68.4C580.7 67.4 580.7 66.5 580.7 65.5C580.4 63.3 579.1 61.7 577.2 60.7C573.7 58.5 569.6 59.7 568 63.6C567 66.5 567 69 567.7 71.8C568.3 74 569.3 75.6 571.5 76.6C575.6 78.2 580.7 74.7 580.7 70.3V68.4ZM572.5 89.6C571.2 89.3 569.6 89 568.7 88.3C566.2 87 564.6 85.1 563.6 82.3C564.9 82.3 566.1 82.3 567.4 82.3C567.7 82.3 567.7 82.6 568 82.6C570.2 86.4 574.7 87.4 578.5 85.1C580.1 84.1 580.7 82.9 581 81C581 79.1 581 77.2 581 75.3C580.7 75.6 580.4 76.3 580 76.6C576.2 81 569.2 80.1 566 75.6C563.8 72.7 563.5 69.6 563.8 66.1C563.8 63.9 564.8 62 565.7 60.1C568.9 55.3 576.5 54.4 580 59.5C580.3 59.8 580.6 60.1 581 60.8V56.7H588V59.6H584.5V60.6C584.5 67.3 584.5 73.9 584.5 80.6C584.5 85.4 581.6 88.2 577.2 89.2C576.6 89.2 576.2 89.5 575.6 89.5H572.4V89.6H572.5ZM602 23C602 17.9 597.9 13.8 592.8 13.8C587.7 13.8 583.6 17.9 583.3 23C583.3 28.1 587.4 32.2 592.5 32.5C597.9 32.2 602 28.1 602 23ZM603.9 24.3C603.6 26.2 602.9 27.8 601.7 29.4C598.8 33.2 594.1 34.8 589.6 33.5C585.2 32.2 582 28.4 581.7 24C581.1 18 585.2 12.6 590.9 11.6C590.9 11.6 591.2 11.6 591.5 11.6H594H594.3C597.5 12.2 599.7 13.5 601.6 16C602.9 17.6 603.2 19.2 603.8 21.1V24.3H603.9ZM382.9 58.5C382.3 61.7 381.3 64.8 380.7 68C379.7 72.4 378.5 76.9 377.5 81.3C377.5 81.6 377.5 81.9 376.9 81.9C374 81.9 371.2 81.9 368.3 81.9C368 80.9 367.7 80 367.7 79C365.5 71.1 363.3 63.1 361.4 55.2C361.4 54.6 361.1 54.2 360.4 54.2C359.8 54.2 359.1 54.2 358.2 54.2V47.5H371.8V54.2H368.3C369.9 60.9 371.5 67.5 373.1 74.2C373.4 73.6 373.4 72.6 373.7 72C375.3 64.1 376.9 56.1 378.8 48.5C378.8 48.2 379.1 47.9 379.4 47.9C381.9 47.9 384.5 47.9 387 47.9C387.6 47.9 387.6 48.2 387.6 48.5C389.5 56.7 391.1 65 393 73.2C393 73.5 393 73.5 393.3 73.8L397.7 54.1H394.2V47.4H407.8V54.1C407.2 54.1 406.2 54.1 405.6 54.1C405.3 54.1 405 54.1 405 54.7C402.8 63.3 400.2 72.1 398 80.7C397.7 81.3 397.7 81.7 397 81.7C394.5 81.7 391.9 81.7 389.4 81.7C388.8 81.7 388.8 81.7 388.4 81.1C386.5 73.8 384.9 66.5 383 58.9C383.2 58.8 383.2 58.8 382.9 58.5ZM337.2 45.8C335 52.5 333.1 58.8 331.2 65.5H342.9C341 58.8 339.1 52.2 337.2 45.8ZM358.4 74.7V82H348.3C347.7 79.8 347 77.6 346.4 75.3C346.1 74.3 345.8 73.4 345.4 72.4C345.4 72.1 345.1 72.1 344.8 72.1C339.7 72.1 334.7 72.1 329.9 72.1C329.3 72.1 329.3 72.4 329.3 72.7C328.3 75.6 327.7 78.4 326.8 81.3C326.8 81.6 326.8 81.6 326.5 81.9H316V74.6C317 74.6 317.9 74.6 318.9 74.6C319.5 74.6 319.5 74.6 319.9 74C323.7 61.6 327.8 49.6 331.6 37.2C331.6 36.6 331.9 36.6 332.6 36.6C335.8 36.6 338.9 36.6 342.4 36.6C343 36.6 343 36.9 343.4 37.2C347.5 49.3 351.3 61.6 355.5 73.7C355.8 74.3 355.8 74.3 356.5 74.3C356.5 74.7 357.5 74.7 358.4 74.7ZM482.8 60.4L497.4 60.7C497.4 56.9 494.5 54 490.7 54C486.9 53.8 483.1 56.9 482.8 60.4ZM507.2 66.8H482.8C483.1 70 484.1 72.8 486.6 74.7C488.8 76.3 491.4 76.6 494.2 75.7C496.1 75.1 497.1 73.8 498 71.9C498.3 71.6 498.3 71.3 499 71.3C501.5 71.3 504.4 71.3 506.9 71C506.9 71.6 506.6 72 506.6 72.3C504.7 78.3 500.6 81.8 494.2 82.8C490.4 83.4 486.9 83.1 483.4 81.2C479 79 476.1 75.2 474.8 70.1C473.5 64.1 474.2 58.4 478 53.3C484.3 44.7 497.7 45.1 504 53.6C505.9 56.9 507.5 63 507.2 66.8ZM57.2 60.4L71.8 60.7C72.1 57.2 69.3 54.4 65.5 54C61.6 53.5 57.5 56.6 57.2 60.4ZM81 66.8H56.6C56.6 67.4 56.6 68.1 56.9 68.7C57.2 70 57.5 71.2 58.2 72.5C59.8 75.4 62.6 76.3 65.8 76C68.7 75.7 70.6 74.1 71.5 71.6C71.5 71.3 71.8 71.3 72.1 71.3C74.6 71.3 77.5 71 80 71H80.3C80 72.9 79.3 74.5 78.4 76.1C75.9 79.9 72.4 82.1 67.9 82.8C64.1 83.4 60.3 83.1 56.8 81.2C52 78.7 49.5 74.5 48.2 69.5C47.2 64.4 47.6 59.4 50.4 54.9C56.1 45.1 70.7 44.1 77.4 53.6C79.9 57.4 81.2 61.8 81.2 66.6C81.3 66.5 81.3 66.5 81 66.8ZM432.3 65.8C430.1 66.1 427.9 66.1 426 66.8C424.4 67.1 423.1 67.4 421.6 68.1C419.7 68.7 419.1 70.3 419.1 72.2C419.1 74.1 420.4 75.4 422.3 76C425.2 77 428.6 76 430.9 73.8C432.7 71.5 432.7 68.7 432.3 65.8ZM432.3 60.1C432.3 59.1 432 57.9 432 56.9C431.7 55 430.4 53.7 428.5 53.4C427.2 53.1 425.6 53.1 424.4 53.4C422.2 54 420.6 55.3 420.6 57.8C420.6 58.1 420.6 58.4 420.6 58.8L412.4 58.5C412.4 56.9 412.7 55.3 413.7 54.1C415 51.6 417.2 49.7 419.7 48.7C424.8 46.8 429.8 46.8 434.9 49C439 50.6 440.9 54.1 441.2 58.2C441.5 62 441.2 65.8 441.2 69.9C441.2 71.8 441.2 73.7 441.2 75.9H444.1V82.6H433.3V78.8C433 79.1 432.3 79.8 432 80.1C426.9 84.5 418.4 84.2 413.6 79.8C409.5 75.7 409.5 67.4 415.8 64.3C418.7 62.7 421.5 62.1 424.7 61.8C427.2 61.5 429.8 61.2 432.6 60.8C432 60.1 432 60.1 432.3 60.1ZM177.4 53.8C178.7 52.5 179.6 51.3 180.9 50C183.8 47.5 186.9 46.5 190.7 47.1C193.6 47.7 195.1 49.3 196.1 51.9C196.4 52.5 196.4 53.2 196.7 53.8C197 53.5 197.3 52.8 197.7 52.5C199.3 50 201.5 47.7 204.7 47.1C207.6 46.5 210.4 46.5 212.6 48.4C214.5 50 215.1 52.2 215.5 54.4C215.5 55 215.5 56 215.5 56.6C215.5 63.3 215.5 69.9 215.5 76.3V77.3H220.3V81.4H210.8V80.4C210.8 72.5 210.8 64.9 210.8 56.9C210.8 55.9 210.8 55.3 210.5 54.4C209.9 51.2 207.6 49.6 204.2 50.6C201.7 51.2 200.1 52.8 198.5 55C197.2 56.9 196.6 59.1 196.6 61.3C196.6 66.4 196.6 71.4 196.6 76.5V77.5H201.7V81.6H191.3V80.6C191.3 72.7 191.3 64.7 191.3 56.8C191.3 55.8 191.3 54.9 191 53.9C190.4 52 189.1 51 187.2 50.7C184.3 50.4 182.4 51.7 180.5 53.6C178.3 56.1 177 58.7 177.3 62.2C177.3 67 177.3 71.7 177.3 76.8V77.8H182.4V81.9H167.9V77.8H172.7V51.5H167.9V47.4H178C177.1 49.6 177.1 51.6 177.4 53.8ZM119.3 63.6H108.8C108.8 62.3 108.8 60.7 109.1 59.5H125V81.7H120V74.7C119.7 75 119.7 75 119.7 75.3C116.5 80.1 112.4 82.6 106.7 82.9C102.3 82.9 98.8 81.3 95.3 78.5C91.5 75 89.3 70.6 88.3 65.8C87 59.5 87.7 53.1 90.2 47.1C92.1 43 95 39.5 99.1 37.6C105.8 34.4 114 35.7 118.8 42.7C118.8 43 119.1 43 119.4 43.3V36.3H124.2V50.6H119C118.7 48.7 117.7 47.1 116.8 45.5C114.3 42 110.8 40.1 106.7 40.1C102.9 40.1 99.7 42 97.5 44.9C95.3 47.4 94.3 50.6 93.7 54.1C93.1 58.9 93.4 63.3 95 67.7C96 70.2 97.2 72.5 99.4 74.4C103.2 77.9 108 78.5 112.4 76.3C116.8 74.4 119.7 69 119.3 63.6ZM253.8 64.6C253.8 64 253.8 63.3 253.8 62.4C253.5 59.9 252.8 57.3 251.6 55.1C249.1 51.6 244.9 50.3 241.1 52.2C237.6 53.8 234.1 58.2 234.8 63C235.1 65.5 234.8 67.8 235.4 70.3C236 74.4 240.2 77.9 244.3 78.5C247.8 78.8 251 76.9 252.5 73.7C253.2 70.6 253.8 67.7 253.8 64.6ZM229.4 39.2H225V35.1H234.5V54.8C234.8 54.5 234.8 54.2 235.1 54.2C236.1 52.6 237.6 51 239.2 49.8C243.6 46.6 249 46.6 253.5 50.4C256.7 52.9 258.3 56.4 259.2 60.2C260.5 65.9 259.8 71.3 256.7 76.4C255.1 78.9 252.9 81.2 250 82.4C245.6 84 240.5 82.7 237.3 79.2C236.7 78.2 235.7 77.3 234.8 76.3V82.3H225V78.2H229.8V39.2H229.4ZM153.3 64.6C153 64.6 152.7 64.6 152.7 64.6C149.8 64.9 147 65.6 143.8 66.2C141.9 66.5 140 67.2 138.4 68.4C137.4 69 136.5 70 136.5 71.6C135.9 75.4 138.7 79.2 142.8 79.5C147.2 79.8 152 76.3 152.9 71.9C153.3 69 152.9 66.8 153.3 64.6ZM157.7 78.2H162.5C162.5 79.5 162.8 81.1 162.8 82.3H153V76.3C152.7 76.6 152.7 76.6 152.7 76.6C150.2 80.7 146.4 82.6 141.6 82.9C137.5 83.2 134.3 81.6 132.1 78.1C130.2 74.9 129.6 71.8 131.5 68.3C132.5 66.1 134.4 65.1 136.6 64.2C139.5 62.9 142.6 62.3 145.8 61.7C148 61.4 150.6 61.1 153.1 60.7C153.1 59.1 153.1 57.2 152.8 55.6C152.2 53.1 150.3 51.8 148 51.2C146.1 50.6 143.9 50.9 142 51.2C139.5 51.8 137.9 53.7 137.2 56C136.9 56.6 136.9 57 135.9 57C134.3 57 133 57 131.5 57C132.5 52.9 134.4 50 138.2 48.1C142.6 46.2 147.1 46.2 151.5 48.1C155 49.7 156.9 52.5 157.5 56.3C157.5 57.3 157.5 57.9 157.5 58.8C157.5 64.8 157.5 70.5 157.5 76.6L157.7 78.2ZM286.1 62H304.8C304.8 59.1 303.8 56.9 302.6 54.7C300.7 52.2 298.5 50.9 295.3 51.5C289.3 52.2 286.5 56.6 286.1 62ZM310.6 65.8H285.9C286.2 67.1 286.2 68 286.5 69C286.8 70.9 287.5 72.8 288.7 74.7C291.2 78.5 296.9 79.8 300.4 77.6C302 76.6 302.9 75.1 303.9 73.5C304.2 72.9 304.5 72.5 305.2 72.5C306.8 72.5 308.4 72.5 310 72.5C309.7 73.1 309.7 73.8 309.4 74.4C307.2 79.5 301.2 83 295.4 82.3C287.5 81.7 282.1 76.3 280.8 68.3C279.8 63.2 280.5 58.2 283.3 53.7C285.5 49.9 289 47.4 293.4 46.7C299.7 45.7 305.5 48.9 308.3 54.6C309.9 57.8 310.5 61.3 310.5 65.1C310.6 65.8 310.6 65.8 310.6 65.8ZM459.9 75.3H464V82H448.1V75.3H451.6V54.4H448.1V47.7H459.8V52.8C460.1 52.5 460.4 51.8 460.4 51.5C461.7 49.6 463.3 47.7 465.8 47.4C467.7 46.8 469.9 47.1 471.8 47.4L472.1 47.7C472.1 50.2 472.1 52.8 472.1 55.3C471.1 55.3 470.2 55 469.2 55C466.7 54.7 464.1 55.3 462.2 56.9C460.6 58.2 460 60.1 459.7 62C459.7 66.1 459.7 70.2 459.7 74.7C459.6 75 459.6 75 459.9 75.3ZM266.8 38.9H262V35.1H271.8V77.9H276.2V82H262V77.9H266.8V38.9ZM523.4 69.6C523.4 71.5 523.7 73.4 524.4 75.3C525.7 77.8 527.6 79.4 530.4 79.4C533.2 79.4 535.5 78.1 536.7 75.6C537.3 74 537.7 72.7 538 70.8C538.3 68.3 538 65.7 536.7 63.5C535.4 61 533.2 59.7 530.4 59.7C527.6 59.7 526 61.3 524.7 63.5C523.4 65.5 523.4 67.4 523.4 69.6ZM541.7 69C541.7 72.2 541.1 75 539.5 77.2C537 81 533.5 82.3 529 82C524.9 81.7 522 79.1 520.4 75.3C518.8 71.2 518.5 66.7 520.4 62.6C522.3 58.5 525.8 56.3 530.5 56.3C535.2 56.3 538.4 58.5 540.3 62.6C541.4 64.9 541.7 67.1 541.7 69ZM555.7 81.7H544.6V78.8H548.1V60.1H544.6V57.2H551.9V62.3C553.2 60.1 554.8 57.9 557.3 56.9C558.6 56.6 560.8 56.6 562.1 56.9V60.4C561.5 60.4 560.8 60.4 560.2 60.1C555.8 59.8 552 63 552 67.4C552 70.9 552 74.7 552 78.2V78.5H556.1L555.7 81.7ZM511.3 77.6H515.4V81.7H511.3V77.6ZM589.9 17.9V21.7C591.2 21.7 592.4 21.7 593.7 21.7C594 21.7 594.3 21.7 594.7 21.4C595.7 21.1 596 20.4 595.7 19.2C595.7 18.2 595.1 17.6 594.1 17.6C592.8 17.9 591.5 17.9 589.9 17.9ZM595.3 22.7C596.6 23 596.9 24 596.9 24.9C596.9 25.8 597.2 27.1 597.2 28.1C595.3 28.1 595.6 28.4 595.3 26.5C595.3 25.9 595.3 25.2 595 24.6C594.7 23.6 594.4 23 593.1 23C591.8 23 590.6 23 589.3 23V27.8H587.7V16.4C588 16.4 588.3 16.4 589 16.4C590.6 16.4 592.2 16.4 593.8 16.4C595.4 16.4 596.3 17.4 596.7 18.6C597.6 20.5 596.9 21.7 595.3 22.7Z" fill="#221F1F"/>
</svg>
