<svg width="20" height="21" viewBox="0 0 20 21" fill="none" xmlns="http://www.w3.org/2000/svg">
<g clip-path="url(#clip0_2916_85103)">
<path d="M1.5672 5.73192V5.65729C1.48966 5.2369 1.59305 4.916 1.95231 4.61998C2.28573 4.34884 2.5933 4.17471 3.00426 4.10008C4.82644 3.75431 6.47028 2.98814 8.01073 1.9757C8.42169 1.70456 8.8068 1.4558 9.21776 1.18466C9.7321 0.863762 10.218 0.838886 10.7582 1.18466C11.6318 1.75182 12.5287 2.2966 13.454 2.79162C14.7127 3.45829 16.0722 3.95331 17.5093 4.17471C17.6385 4.19958 17.7652 4.29908 17.8686 4.3961C18.0495 4.57023 18.2278 4.74187 18.3829 4.916C18.4605 5.0155 18.5121 5.16227 18.5121 5.28665C18.4088 6.52297 18.308 7.7568 18.1529 8.96824C17.972 10.3016 17.7161 11.6374 17.2793 12.9459C16.1239 16.2319 14.0691 18.7518 11.0916 20.5304C10.7065 20.7767 10.2697 21.0255 9.78121 20.9011C9.44779 20.8264 9.14022 20.6797 8.85591 20.5056C5.90424 18.7269 3.87529 16.2319 2.79749 12.9931C2.10481 10.9434 1.79723 8.84137 1.64215 6.717C1.59046 6.3961 1.56462 6.0752 1.56462 5.72943C1.56462 5.74602 1.56462 5.74602 1.56462 5.72943L1.5672 5.73192Z" fill="#F0F1F1"/>
<path d="M18.7395 1.62944C18.6878 1.62944 18.6878 1.65432 18.662 1.65432C17.9951 1.87571 17.3257 2.09959 16.6847 2.32098C16.4547 2.39561 16.2738 2.5175 16.0954 2.66675C15.992 2.76626 15.9145 2.84088 15.8137 2.9379C14.6584 4.04984 13.4772 5.18665 12.3218 6.29859C11.4999 7.08964 10.678 7.88068 9.85609 8.67173L9.16341 9.3384C8.82999 9.65929 8.49657 9.98019 8.1373 10.3011C7.548 10.8682 6.98196 11.4379 6.39267 11.9802C6.23759 12.1294 6.08509 12.2762 5.93001 12.4255C5.87832 12.4752 5.85247 12.525 5.80078 12.5747C5.87832 12.6493 5.95586 12.724 6.00497 12.7961C6.05666 12.8459 6.10835 12.8459 6.16005 12.8459C6.39008 12.7961 6.6227 12.7464 6.85273 12.6966C6.98196 12.6717 7.13446 12.6717 7.26369 12.6717C7.26369 12.7215 7.26369 12.7961 7.28954 12.8459C7.31538 12.9454 7.28954 13.0673 7.26369 13.1668C7.18615 13.3881 7.13446 13.5872 7.08277 13.8085V13.8832C7.16031 13.9578 7.23784 14.0573 7.3128 14.1294C8.85325 12.6469 10.3937 11.1643 11.9341 9.68168C13.7305 7.95282 15.5294 6.22148 17.3257 4.46775C17.5299 4.27123 17.7108 4.07223 17.915 3.87571C17.9409 3.85083 17.9926 3.80108 17.9926 3.77621C18.0701 3.62695 18.1218 3.48019 18.1735 3.33093C18.3027 2.88566 18.4294 2.46526 18.5586 2.02248C18.662 1.92297 18.6878 1.80108 18.7395 1.62695V1.62944Z" fill="#A6A8AA"/>
<path d="M6.72597 6.44836C7.4962 7.21453 8.26642 7.95583 9.0625 8.722C9.14003 8.64737 9.21757 8.57274 9.29253 8.5006C9.47345 8.32647 9.65179 8.15483 9.80687 8.00558C9.85857 7.95583 9.91026 7.93095 9.9361 7.85632C9.91887 7.83974 9.90164 7.82316 9.88441 7.80657C9.72933 7.65732 9.57684 7.51055 9.42176 7.3613C9.06249 6.99065 8.70323 6.62001 8.34396 6.27423C8.03639 5.97821 7.75466 5.68219 7.44451 5.35881C7.08524 4.98816 6.72597 4.61752 6.36671 4.24687C6.11083 3.97573 5.82652 3.7021 5.57064 3.43095C5.23722 3.08518 4.87795 2.73941 4.54453 2.41851C4.46699 2.34389 4.36361 2.24438 4.28865 2.17224C4.23696 2.12249 4.21111 2.09762 4.13357 2.09762C4.03019 2.07274 3.92938 2.07274 3.826 2.04787C3.59597 1.99811 3.36335 1.94836 3.13331 1.92349C3.10747 1.92349 3.05577 1.89861 3.02993 1.89861C2.97823 1.89861 2.92654 1.87374 2.87485 1.87374C2.59312 1.77423 2.2597 1.69961 1.9237 1.65234H1.82031V1.75185C1.82031 1.87622 1.84616 2.02299 1.87201 2.14737C1.9237 2.51802 1.94954 2.86379 2.00124 3.23443C2.02708 3.38369 2.05293 3.53045 2.07878 3.70458C2.07878 3.80409 2.07878 3.92598 2.10462 4.05035C2.13047 4.14986 2.15632 4.24687 2.23386 4.3215C2.77405 4.86627 3.28581 5.38369 3.826 5.92846C4.21111 6.32399 4.59622 6.71951 4.98134 7.09016C5.3406 7.4608 5.69987 7.83145 6.05913 8.20209C6.28917 8.42349 6.49594 8.64737 6.72597 8.86876C6.80351 8.94339 6.88105 9.01802 6.95601 9.09015C7.11109 9.26428 7.28943 9.43593 7.44451 9.58518C7.52204 9.68468 7.62543 9.75931 7.70039 9.8812C7.72623 9.90607 7.75208 9.93095 7.77793 9.95583C8.0855 9.63493 8.39307 9.33891 8.72908 9.01802L8.574 8.86876C7.88131 8.2021 7.21447 7.53543 6.5192 6.86627C6.46751 6.81652 6.44166 6.7419 6.44166 6.69214C6.54505 6.66727 6.59674 6.54289 6.72339 6.44588L6.72597 6.44836Z" fill="#A6A8AA"/>
<path d="M18.9945 18.0621C17.6841 16.7287 16.4021 15.3929 15.0917 14.0596C15.0658 14.0596 15.0658 14.0844 15.0658 14.0844C14.6549 14.48 14.2439 14.8755 13.8329 15.2461C13.8071 15.271 13.8071 15.2959 13.7812 15.2959C15.1175 16.6292 16.4512 17.965 17.7875 19.2984C18.1984 18.9029 18.5835 18.4825 18.9945 18.0621Z" fill="#A6A8AA"/>
<path d="M4.00781 15.5178C4.13704 15.6422 4.26369 15.7392 4.36708 15.8636C4.47046 15.9631 4.548 15.9631 4.67465 15.9382C5.34149 15.7417 5.98507 15.5178 6.65191 15.2964C6.80699 15.2466 6.93363 15.2218 7.08871 15.172C7.11456 15.172 7.1404 15.1471 7.1921 15.1471C7.16625 15.0974 7.1404 15.0725 7.08871 15.0228C6.88452 14.8014 6.67775 14.6024 6.47357 14.381C6.44772 14.3561 6.42187 14.3561 6.39603 14.3312C6.42187 14.2815 6.37018 14.2815 6.34433 14.2566C5.90753 13.8113 5.47072 13.366 5.03392 12.8984C5.01669 12.8818 4.99946 12.8652 4.98222 12.8486C4.64881 13.7392 4.34123 14.6024 4.00781 15.5178Z" fill="#A6A8AA"/>
<path d="M14.6608 12.1572C14.6349 12.1821 14.6349 12.207 14.6091 12.2319C13.813 13.0229 12.9911 13.8139 12.195 14.6299C12.1433 14.6796 12.1433 14.7294 12.195 14.7791L12.7611 15.3239L12.8386 15.3985C13.7122 14.5577 14.5832 13.7418 15.4568 12.9284C15.1751 12.6821 14.9167 12.4333 14.6608 12.1622V12.1572Z" fill="#A6A8AA"/>
<path d="M0.0258465 19.8414H1.77048C1.82218 19.8414 1.87387 19.8414 1.92556 19.8165V18.6548C1.92556 18.605 1.89972 18.5553 1.87387 18.5304C1.66968 18.309 1.46291 18.11 1.25872 17.8886C1.20703 17.8389 1.18118 17.8389 1.12949 17.8389H0V19.6423C0.0258465 19.6921 0.0258465 19.7667 0.0258465 19.8389V19.8414Z" fill="#A6A8AA"/>
<path d="M11.684 14.3063C12.5317 13.4904 13.3536 12.6496 14.1988 11.8361C13.9946 11.6147 13.762 11.4157 13.5578 11.1943C12.7101 12.0103 11.8881 12.8013 11.043 13.6147C11.2472 13.861 11.4798 14.0849 11.684 14.3063Z" fill="#A6A8AA"/>
<path d="M13.0924 10.8457C12.7848 10.5497 12.4772 10.2785 12.1671 10.0049C11.7819 10.3507 11.3968 10.6964 11.0117 11.0671C11.0117 11.0837 11.0203 11.0919 11.0376 11.0919C11.2934 11.3382 11.5519 11.6118 11.8336 11.8581C11.8853 11.9079 11.9112 11.9079 11.9629 11.8581C12.2187 11.6367 12.4772 11.388 12.7331 11.1666C12.8623 11.0671 12.989 10.9452 13.0924 10.8457Z" fill="#A6A8AA"/>
<path d="M11.7068 12.0576C11.4251 11.7616 11.1408 11.4904 10.859 11.2168C10.4998 11.5626 10.1405 11.9332 9.78125 12.3039L9.8071 12.3287C10.063 12.575 10.3214 12.8238 10.5773 13.0452C10.629 13.0949 10.6807 13.0949 10.7324 13.0452C11.04 12.7491 11.3475 12.4282 11.6577 12.1297C11.6836 12.1049 11.7094 12.08 11.7094 12.0551L11.7068 12.0576Z" fill="#A6A8AA"/>
<path d="M19.5649 18.5078L19.4357 18.6322C19.1023 19.0028 18.743 19.3735 18.4096 19.7441C18.3837 19.769 18.3579 19.8188 18.332 19.8436C18.3579 19.8934 18.4096 19.9183 18.4613 19.9183C18.5646 19.9431 18.6422 19.968 18.743 20.0178C18.9239 20.0924 19.1281 20.167 19.3323 20.2143C19.4874 20.264 19.6399 20.2889 19.7691 20.3635C19.7949 20.3884 19.8208 20.3884 19.8466 20.3884C19.8983 20.4133 19.9242 20.3884 19.95 20.3635C20.0017 20.3138 20.0017 20.2392 20.0017 20.167C19.95 19.9929 19.9242 19.8212 19.8725 19.6471C19.8208 19.4506 19.7949 19.2765 19.7174 19.08C19.6657 18.9307 19.6399 18.8088 19.614 18.6596C19.5882 18.6098 19.5882 18.5601 19.5623 18.5103L19.5649 18.5078Z" fill="#A6A8AA"/>
<path d="M2.43936 17.9636C2.64355 17.7671 2.85032 17.5929 3.05451 17.4188C2.82448 17.2447 2.61771 17.0482 2.41352 16.874C2.20933 17.0482 2.02841 17.2198 1.82422 17.3939C2.00514 17.5904 2.20933 17.7646 2.43936 17.9611V17.9636Z" fill="#A6A8AA"/>
<path d="M3.05558 16.209C2.92635 16.3334 2.7997 16.4304 2.67047 16.5548C2.61878 16.5796 2.64462 16.6294 2.67047 16.6543C2.67047 16.6791 2.69632 16.6791 2.72216 16.704C2.90309 16.8533 3.08143 16.9752 3.26235 17.1244C3.27959 17.141 3.29682 17.1493 3.31405 17.1493C3.46913 17 3.59577 16.8781 3.75085 16.7289C3.52082 16.5796 3.2882 16.408 3.05817 16.209H3.05558Z" fill="#A6A8AA"/>
<path d="M3.33462 16.0099C3.5388 16.2064 3.77142 16.4054 4.00145 16.6019C4.07899 16.5273 4.18238 16.4278 4.25733 16.3557C4.33229 16.2835 4.33487 16.2313 4.25733 16.1815C4.07641 16.0323 3.92392 15.8607 3.74299 15.7114C3.72576 15.6948 3.70853 15.6865 3.6913 15.6865C3.56206 15.786 3.43542 15.9079 3.33203 16.0074L3.33462 16.0099Z" fill="#A6A8AA"/>
<path d="M10.0237 16.1789C13.2426 16.1789 15.8521 13.6674 15.8521 10.5694C15.8521 7.4714 13.2426 4.95996 10.0237 4.95996C6.80477 4.95996 4.19531 7.4714 4.19531 10.5694C4.19531 13.6674 6.80477 16.1789 10.0237 16.1789Z" fill="#295583"/>
<path d="M13.0093 13.5897L11.7971 14.7439H7.51172V14.6569L8.0364 14.0623C8.72133 13.2862 9.37783 12.4653 10.0007 11.5997C10.3884 11.0499 10.6805 10.5773 10.8743 10.1817C11.0682 9.78622 11.1664 9.39319 11.1664 9.00513C11.1664 8.52752 11.0398 8.1519 10.7891 7.87826C10.5383 7.60215 10.1532 7.46533 9.63371 7.46533C9.39076 7.46533 9.16589 7.50513 8.95912 7.58722C8.75235 7.66682 8.54299 7.78623 8.33105 7.94045V6.65438C8.8273 6.40563 9.31063 6.28125 9.78362 6.28125C10.3238 6.28125 10.7942 6.3907 11.1897 6.60463C11.5851 6.82105 11.8875 7.12453 12.0917 7.51259C12.2959 7.90065 12.3993 8.34593 12.3993 8.84344C12.3993 9.50264 12.1873 10.1917 11.766 10.9106C11.3422 11.6295 10.7477 12.4206 9.97747 13.2862L9.7035 13.5947H13.0067L13.0093 13.5897Z" fill="#F0F1F1"/>
</g>
<defs>
<clipPath id="clip0_2916_85103">
<rect width="20" height="20" fill="white" transform="translate(0 0.935547)"/>
</clipPath>
</defs>
</svg>
